<?xml version="1.0" encoding="UTF-8"?>
<svg id="Isolation_Mode" xmlns="http://www.w3.org/2000/svg" version="1.1" viewBox="0 0 1920 1080">
  <!-- Generator: Adobe Illustrator 29.5.1, SVG Export Plug-In . SVG Version: 2.1.0 Build 141)  -->
  <path d="M967.81,781.48c-6.38.32-12.77.4-19.15.21-25.32-.76-50.5-2.97-75.47-7.32-21.96-3.83-43.76-8.52-64.8-16.02-16.86-6.01-33.74-12.07-50.17-19.15-26.26-11.31-50.77-25.87-74.39-42-19.94-13.62-38.83-28.6-56.09-45.38-15.64-15.21-30.85-31.01-44.79-47.77-13.52-16.25-25.25-34.02-37.63-51.21-2.25-3.12-4.07-6.59-5.71-10.08-.59-1.26-.66-3.38.01-4.53,13.77-23.54,29.94-45.37,47.39-66.27,19.02-22.78,40.14-43.46,62.94-62.43,26.74-22.26,55.42-41.62,86.36-57.54,9.97-5.13,20.06-10.07,30.28-14.67,7.91-3.56,16.01-6.65,24.24-9.36,13.88-4.56,27.85-8.9,41.86-13.05,8.06-2.39,16.24-4.39,24.51-5.94,13.62-2.56,27.29-4.91,40.99-6.94,8.23-1.22,16.52-1.98,24.83-2.34,17.78-.78,35.58-1.57,53.36-1.47,12.67.07,25.37,1.36,37.99,2.76,14.81,1.64,29.62,3.52,44.28,6.19,11.61,2.11,23.02,5.37,34.44,8.45,10.79,2.91,21.54,6.01,32.15,9.51,6.9,2.28,13.5,5.43,20.24,8.16,4.36,1.77,8.79,3.35,13.08,5.27,6.2,2.77,12.4,5.57,18.41,8.73,11.25,5.91,22.53,11.79,33.48,18.22,23.82,13.97,46.31,29.92,66.94,48.29,13.6,12.11,27.02,24.49,39.65,37.59,23.98,24.88,44.61,52.42,62.4,82.08,1.61,2.69,2.1,5.06.18,7.93-8.57,12.85-16.64,26.06-25.55,38.67-15.08,21.36-32.42,40.86-50.92,59.31-25.89,25.82-53.99,48.86-85,68.34-25.4,15.96-52.01,29.43-79.89,40.41-23.9,9.42-48.42,16.91-73.53,22.26-25.77,5.49-51.8,9.2-78.18,10.23-6.25.24-12.5.55-18.75.86Z"/>
</svg>