<?xml version="1.0" encoding="UTF-8"?>
<svg id="Layer_1" data-name="Layer 1" xmlns="http://www.w3.org/2000/svg" viewBox="0 0 328.71 218.12">
  <defs>
    <style>
      .cls-1 {
        fill: #fff;
      }

      .cls-2 {
        fill: #0354a5;
      }
    </style>
  </defs>
  <g>
    <path class="cls-1" d="M18.25,0c6.22,0,11.9.49,17.04,1.48,5.14.99,9.52,2.64,13.15,4.97,3.63,2.33,6.44,5.42,8.42,9.27,1.98,3.85,2.97,8.6,2.97,14.24,0,4.66-.87,8.87-2.62,12.63-1.75,3.76-4.2,6.94-7.36,9.54-3.16,2.6-6.98,4.59-11.46,5.98-4.48,1.39-9.41,2.08-14.78,2.08h-7.5v41.12H0V0h18.25ZM16.13,45.96h6.08c14.71,0,22.07-5.38,22.07-16.12s-7.59-15.72-22.77-15.72h-5.38v31.85Z"/>
    <path class="cls-1" d="M63.65,37.36h15.56v36.68c0,10.66,4.38,15.99,13.15,15.99s13.3-5.33,13.3-15.99v-36.68h15.56v37.09c0,9.05-2.45,16.1-7.35,21.16-4.9,5.06-12.07,7.59-21.5,7.59-4.34,0-8.27-.58-11.81-1.75s-6.55-2.93-9.05-5.31c-2.5-2.37-4.43-5.35-5.8-8.94-1.37-3.58-2.05-7.84-2.05-12.76v-37.09Z"/>
    <path class="cls-1" d="M134.51,0h15.56v44.48h.14c3.39-3.13,6.86-5.4,10.4-6.79,3.54-1.39,7.33-2.08,11.39-2.08,4.81,0,9.26.87,13.37,2.62,4.1,1.75,7.64,4.12,10.61,7.12,2.97,3,5.28,6.56,6.93,10.68,1.65,4.12,2.47,8.6,2.47,13.44s-.83,9.16-2.47,13.24c-1.65,4.08-3.96,7.62-6.93,10.62-2.97,3-6.46,5.35-10.47,7.05-4.01,1.7-8.37,2.55-13.08,2.55-4.24,0-8.16-.67-11.74-2.02-3.58-1.34-7.07-3.58-10.47-6.72h-.14v7.12h-15.56V0ZM149.08,69.2c0,2.87.5,5.56,1.49,8.06.99,2.51,2.38,4.68,4.17,6.52,1.79,1.84,3.94,3.29,6.44,4.37,2.5,1.07,5.26,1.61,8.27,1.61s5.78-.54,8.27-1.61c2.5-1.08,4.62-2.51,6.37-4.3,1.74-1.79,3.09-3.94,4.03-6.45.94-2.51,1.41-5.15,1.41-7.93,0-6-1.75-10.95-5.23-14.85-3.49-3.9-8.39-5.84-14.71-5.84-3.11,0-5.92.52-8.42,1.54-2.5,1.03-4.65,2.46-6.44,4.3-1.79,1.84-3.18,3.99-4.17,6.45-.99,2.46-1.49,5.17-1.49,8.13Z"/>
    <path class="cls-1" d="M215.28,101.32V0h15.56v101.32h-15.56Z"/>
    <path class="cls-1" d="M243,17.86c0-2.6.99-4.84,2.97-6.72,1.98-1.88,4.34-2.82,7.07-2.82s5.26.94,7.28,2.82c2.03,1.88,3.04,4.12,3.04,6.72s-.99,4.86-2.97,6.79c-1.98,1.93-4.38,2.89-7.21,2.89s-5.35-.96-7.28-2.89c-1.93-1.92-2.9-4.19-2.9-6.79ZM260.96,37.36v63.96h-15.56v-63.96h15.56Z"/>
    <path class="cls-1" d="M271,69.6c0-4.84.87-9.34,2.62-13.5,1.74-4.17,4.24-7.75,7.5-10.75,3.25-3,7.14-5.38,11.67-7.12,4.53-1.75,9.52-2.62,14.99-2.62,3.58,0,7.05.45,10.4,1.34,3.35.9,6.1,1.97,8.27,3.23v16.8c-2.92-2.78-5.87-4.81-8.84-6.11-2.97-1.3-6.44-1.95-10.4-1.95-3.21,0-6.06.52-8.56,1.55-2.5,1.03-4.62,2.46-6.36,4.3-1.75,1.84-3.09,4.01-4.03,6.52-.94,2.51-1.42,5.24-1.42,8.2s.42,5.55,1.27,8.06c.85,2.51,2.12,4.68,3.82,6.52,1.7,1.84,3.79,3.29,6.29,4.37,2.5,1.08,5.4,1.61,8.7,1.61,3.87,0,7.29-.63,10.25-1.88,2.97-1.25,6.06-3.18,9.26-5.78v15.99c-2.45,1.52-5.33,2.71-8.63,3.56-3.3.85-6.7,1.28-10.18,1.28-5.47,0-10.47-.85-14.99-2.55s-8.39-4.05-11.6-7.05c-3.21-3-5.68-6.54-7.43-10.62-1.75-4.08-2.62-8.53-2.62-13.37Z"/>
    <path class="cls-1" d="M161.1,117.61c5,0,9.48.79,13.44,2.35,3.96,1.57,7.28,3.83,9.97,6.79s4.74,6.52,6.15,10.68c1.41,4.17,2.12,8.8,2.12,13.91v3.49h-48.23c.47,5.29,2.21,9.47,5.23,12.56,3.02,3.09,7.12,4.64,12.31,4.64,3.77,0,7-.81,9.69-2.42s5.21-4.3,7.57-8.06l12.73,7.39c-3.3,5.38-7.45,9.43-12.45,12.16-5,2.73-11.03,4.1-18.1,4.1-5,0-9.55-.81-13.65-2.42-4.1-1.61-7.59-3.9-10.47-6.85-2.88-2.96-5.12-6.52-6.72-10.68-1.6-4.17-2.4-8.75-2.4-13.77s.78-9.61,2.33-13.77c1.56-4.17,3.77-7.73,6.65-10.68,2.88-2.96,6.34-5.26,10.4-6.92,4.05-1.66,8.53-2.49,13.44-2.49ZM145.54,142.74h31.26c-.66-3.94-2.38-6.92-5.16-8.94-2.78-2.02-6.25-3.02-10.4-3.02s-7.54,1.08-10.18,3.22c-2.64,2.15-4.48,5.06-5.52,8.73Z"/>
    <path class="cls-1" d="M208.91,119.36l20.51,36.28,19.24-36.28h17.54l-53.61,98.76h-17.68l26.31-47.43-30.41-51.33h18.1Z"/>
    <path class="cls-1" d="M297.03,117.61c5,0,9.48.79,13.44,2.35,3.96,1.57,7.28,3.83,9.97,6.79s4.74,6.52,6.15,10.68c1.42,4.17,2.12,8.8,2.12,13.91v3.49h-48.23c.47,5.29,2.21,9.47,5.23,12.56,3.02,3.09,7.12,4.64,12.31,4.64,3.77,0,7-.81,9.69-2.42s5.21-4.3,7.57-8.06l12.73,7.39c-3.3,5.38-7.45,9.43-12.45,12.16-5,2.73-11.03,4.1-18.11,4.1-5,0-9.55-.81-13.65-2.42-4.1-1.61-7.59-3.9-10.47-6.85-2.88-2.96-5.12-6.52-6.72-10.68-1.6-4.17-2.41-8.75-2.41-13.77s.78-9.61,2.33-13.77c1.56-4.17,3.77-7.73,6.65-10.68,2.88-2.96,6.34-5.26,10.4-6.92,4.05-1.66,8.53-2.49,13.44-2.49ZM281.47,142.74h31.26c-.66-3.94-2.38-6.92-5.16-8.94-2.78-2.02-6.25-3.02-10.4-3.02s-7.54,1.08-10.18,3.22c-2.64,2.15-4.48,5.06-5.52,8.73Z"/>
  </g>
  <path class="cls-2" d="M117.18,151.05c-2.48-4.14-5.36-7.98-8.7-11.45-1.76-1.83-3.63-3.55-5.53-5.24-2.88-2.56-6.01-4.79-9.33-6.73-1.53-.9-3.1-1.72-4.67-2.54-.84-.44-1.7-.83-2.57-1.22-.6-.27-1.22-.49-1.82-.73-.94-.38-1.86-.82-2.82-1.14-1.48-.49-2.98-.92-4.48-1.33-1.59-.43-3.18-.88-4.8-1.18-2.04-.37-4.11-.63-6.17-.86-1.76-.2-3.53-.38-5.3-.38-2.48-.01-4.96.1-7.44.2-1.16.05-2.31.16-3.46.33-1.91.28-3.82.61-5.72.97-1.15.22-2.29.5-3.42.83-1.95.58-3.9,1.18-5.84,1.82-1.15.38-2.28.81-3.38,1.31-1.43.64-2.83,1.33-4.22,2.05-4.31,2.22-8.31,4.92-12.04,8.02-3.18,2.65-6.12,5.53-8.78,8.71-2.43,2.91-4.69,5.96-6.61,9.24-.09.16-.08.46,0,.63.23.49.48.97.8,1.41,1.73,2.4,3.36,4.88,5.25,7.14,1.94,2.34,4.06,4.54,6.25,6.66,2.41,2.34,5.04,4.43,7.82,6.33,3.29,2.25,6.71,4.28,10.37,5.86,2.29.99,4.65,1.83,7,2.67,2.93,1.05,5.97,1.7,9.04,2.23,3.48.61,6.99.91,10.52,1.02.89.03,1.78.02,2.67-.03h0c.87-.04,1.74-.09,2.61-.12,3.68-.14,7.31-.66,10.9-1.43,3.5-.75,6.92-1.79,10.25-3.1,3.89-1.53,7.6-3.41,11.14-5.64,4.32-2.72,8.24-5.93,11.85-9.53,2.58-2.57,5-5.29,7.1-8.27,1.24-1.76,2.37-3.6,3.56-5.39.27-.4.2-.73-.03-1.11ZM98.87,159.53c-.94,2.51-2.29,4.66-4.03,6.45-1.75,1.79-3.87,3.23-6.37,4.3-2.5,1.07-5.26,1.61-8.27,1.61s-5.78-.54-8.27-1.61c-2.5-1.08-4.65-2.53-6.44-4.37-1.79-1.83-3.18-4.01-4.17-6.52-.99-2.51-1.49-5.19-1.49-8.06s.5-5.66,1.49-8.13c.99-2.46,2.38-4.61,4.17-6.45,1.79-1.83,3.94-3.27,6.44-4.3,2.5-1.03,5.3-1.54,8.42-1.54,6.32,0,11.22,1.95,14.71,5.84,3.49,3.9,5.23,8.85,5.23,14.85,0,2.78-.47,5.42-1.41,7.93Z"/>
</svg>